<svg width="100%" height="100%" viewBox="0 0 90 90" version="1.1" xmlns="http://www.w3.org/2000/svg" xmlns:xlink="http://www.w3.org/1999/xlink" xml:space="preserve" xmlns:serif="http://www.serif.com/" style="fill-rule:evenodd;clip-rule:evenodd;stroke-linejoin:round;stroke-miterlimit:1.41421;"><rect id="Mesa-de-trabajo2" serif:id="Mesa de trabajo2" x="0" y="0" width="90" height="90" style="fill:none;"/><clipPath id="_clip1"><rect x="0" y="0" width="90" height="90"/></clipPath><g clip-path="url(#_clip1)"><rect x="0" y="0" width="90" height="90" style="fill:none;"/><g><g><path d="M12.609,78.212l0,-9.214l1.835,0l2.181,6.524c0.201,0.608 0.348,1.063 0.44,1.364c0.105,-0.335 0.268,-0.827 0.491,-1.477l2.206,-6.411l1.64,0l0,9.214l-1.175,0l0,-7.712l-2.678,7.712l-1.1,0l-2.665,-7.844l0,7.844l-1.175,0Z" style="fill:#bd3535;fill-rule:nonzero;"/><path d="M25.159,73.725c0,-1.53 0.411,-2.727 1.232,-3.592c0.821,-0.865 1.881,-1.298 3.18,-1.298c0.851,0 1.618,0.203 2.301,0.61c0.683,0.406 1.203,0.973 1.561,1.7c0.359,0.727 0.538,1.551 0.538,2.473c0,0.934 -0.189,1.77 -0.566,2.508c-0.377,0.737 -0.911,1.296 -1.603,1.675c-0.691,0.379 -1.437,0.569 -2.237,0.569c-0.867,0 -1.643,-0.21 -2.326,-0.629c-0.683,-0.419 -1.2,-0.991 -1.552,-1.716c-0.352,-0.725 -0.528,-1.491 -0.528,-2.3Zm1.257,0.019c0,1.11 0.299,1.985 0.896,2.624c0.597,0.639 1.346,0.958 2.247,0.958c0.917,0 1.673,-0.322 2.265,-0.968c0.593,-0.645 0.89,-1.561 0.89,-2.746c0,-0.75 -0.127,-1.405 -0.38,-1.964c-0.254,-0.56 -0.625,-0.994 -1.113,-1.302c-0.488,-0.307 -1.036,-0.461 -1.644,-0.461c-0.863,0 -1.605,0.296 -2.228,0.889c-0.622,0.593 -0.933,1.583 -0.933,2.97Z" style="fill:#bd3535;fill-rule:nonzero;"/><path d="M37.699,78.212l0,-9.214l1.25,0l4.84,7.235l0,-7.235l1.169,0l0,9.214l-1.251,0l-4.839,-7.24l0,7.24l-1.169,0Z" style="fill:#bd3535;fill-rule:nonzero;"/><path d="M51.279,78.212l0,-8.126l-3.036,0l0,-1.088l7.304,0l0,1.088l-3.048,0l0,8.126l-1.22,0Z" style="fill:#bd3535;fill-rule:nonzero;"/><path d="M56.995,78.212l3.538,-9.214l1.314,0l3.771,9.214l-1.389,0l-1.075,-2.79l-3.853,0l-1.011,2.79l-1.295,0Zm2.658,-3.783l3.124,0l-0.961,-2.552c-0.294,-0.775 -0.512,-1.412 -0.654,-1.911c-0.117,0.591 -0.283,1.178 -0.497,1.76l-1.012,2.703Z" style="fill:#bd3535;fill-rule:nonzero;"/><path d="M67.68,73.725c0,-1.53 0.411,-2.727 1.232,-3.592c0.821,-0.865 1.882,-1.298 3.18,-1.298c0.851,0 1.618,0.203 2.301,0.61c0.683,0.406 1.203,0.973 1.562,1.7c0.358,0.727 0.537,1.551 0.537,2.473c0,0.934 -0.188,1.77 -0.566,2.508c-0.377,0.737 -0.911,1.296 -1.602,1.675c-0.692,0.379 -1.438,0.569 -2.238,0.569c-0.867,0 -1.642,-0.21 -2.325,-0.629c-0.683,-0.419 -1.201,-0.991 -1.553,-1.716c-0.352,-0.725 -0.528,-1.491 -0.528,-2.3Zm1.257,0.019c0,1.11 0.299,1.985 0.896,2.624c0.597,0.639 1.346,0.958 2.247,0.958c0.918,0 1.673,-0.322 2.266,-0.968c0.593,-0.645 0.889,-1.561 0.889,-2.746c0,-0.75 -0.127,-1.405 -0.38,-1.964c-0.254,-0.56 -0.625,-0.994 -1.113,-1.302c-0.488,-0.307 -1.036,-0.461 -1.643,-0.461c-0.863,0 -1.606,0.296 -2.228,0.889c-0.623,0.593 -0.934,1.583 -0.934,2.97Z" style="fill:#bd3535;fill-rule:nonzero;"/></g><path d="M44.55,3.841c-2.541,0 -5.098,0.295 -7.601,0.876c-0.475,0.11 -0.946,0.228 -1.414,0.358l-0.125,0.035l-0.105,0.075c-0.704,0.496 -1.108,1.257 -1.108,2.086c0,1.431 1.213,2.595 2.705,2.595c0.081,0 0.158,-0.008 0.279,-0.024l0.202,-0.043c0.175,-0.046 0.351,-0.093 0.529,-0.136c2.167,-0.522 4.401,-0.786 6.638,-0.786c14.847,0 26.925,11.437 26.925,25.495c0,9.821 -5.795,18.603 -15.122,22.919c-0.551,0.255 -1.116,0.493 -1.689,0.713l0,-40.615l-0.013,-0.203c0.009,-0.094 0.013,-0.187 0.013,-0.279c0,-2.001 -1.705,-3.629 -3.802,-3.629c-1.449,0 -2.752,0.772 -3.405,2.025l-0.261,0.663l-10.19,29.945c-3.598,-10.502 -10.368,-30.238 -10.567,-30.623c-0.097,-0.172 -0.18,-0.319 -0.269,-0.436l0.002,-0.002c-0.704,-0.977 -1.868,-1.565 -3.118,-1.571c-0.893,0.003 -1.762,0.306 -2.447,0.852l-0.174,0.176c-0.184,0.196 -0.367,0.393 -0.544,0.596l-0.002,0.002l-0.004,-0.003c-4.691,5.409 -7.274,12.252 -7.274,19.269c0,13.472 9.489,25.477 23.108,29.203c0.251,0.057 0.396,0.096 0.496,0.124c0.238,0.065 0.348,0.088 0.644,0.088c1.492,0 2.705,-1.163 2.705,-2.594c0,-1.344 -1.07,-2.452 -2.436,-2.582c-11.484,-3.08 -19.5,-12.959 -19.5,-24.038c0,-4.968 1.504,-9.761 4.357,-13.902l0.008,0.004l0.373,-0.51c0.011,-0.017 0.023,-0.033 0.036,-0.049l0.092,-0.093l0,-0.032c0.204,-0.274 0.414,-0.545 0.63,-0.812l0.317,0.855l10.893,32.676c0.198,0.765 0.982,2.148 2.658,2.148c1.363,-0.019 2.209,-0.679 2.583,-2.019c0.49,-1.403 7.295,-22.057 10.599,-31.777l0.019,39.044l0.019,0.169c0.385,1.652 1.941,2.86 3.713,2.885l0.054,0.001c0.514,0 1.015,-0.097 1.489,-0.291c0.067,-0.019 0.135,-0.039 0.206,-0.064c12.453,-4.426 20.82,-15.853 20.82,-28.434c0,-16.724 -14.329,-30.33 -31.942,-30.33" style="fill:#bd3535;fill-rule:nonzero;"/><path d="M73.812,8.818l0.205,0c0.26,0 0.414,-0.13 0.414,-0.332c0,-0.212 -0.144,-0.318 -0.384,-0.321c-0.126,0 -0.198,0.01 -0.235,0.017l0,0.636Zm-0.517,-0.992c0.168,-0.028 0.417,-0.048 0.694,-0.048c0.343,0 0.582,0.051 0.746,0.181c0.137,0.11 0.212,0.27 0.212,0.482c0,0.295 -0.208,0.497 -0.407,0.568l0,0.011c0.161,0.064 0.25,0.219 0.308,0.431c0.072,0.26 0.144,0.561 0.188,0.65l-0.534,0c-0.037,-0.065 -0.092,-0.253 -0.16,-0.537c-0.062,-0.288 -0.161,-0.366 -0.373,-0.37l-0.157,0l0,0.907l-0.517,0l0,-2.275Z" style="fill:#bd3535;fill-rule:nonzero;"/><path d="M74.082,7.074c1.066,-0.01 1.784,0.726 1.796,1.841c0.011,1.126 -0.681,1.866 -1.752,1.872c-1.084,0.005 -1.835,-0.722 -1.855,-1.796c-0.02,-1.119 0.724,-1.908 1.811,-1.917m-0.012,4.248c1.331,0.017 2.397,-1.015 2.422,-2.345c0.024,-1.309 -1.037,-2.397 -2.359,-2.42c-1.314,-0.023 -2.497,1.111 -2.495,2.392c0.002,1.26 1.126,2.356 2.432,2.373" style="fill:#bd3535;fill-rule:nonzero;"/></g></g></svg>